<svg preserveAspectRatio="xMidYMin slice" viewBox="0 0 105 97" fill="none" xmlns="http://www.w3.org/2000/svg">
    <path fill="#000" stroke="#000" stroke-linecap="round" stroke-linejoin="round" d="m95.862 27.732-8.577-8.577-4.107 3.396c-.837-.063-1.693-.1-2.576-.1-18.958 0-43.205 15.37-54.159 34.336-3.587 6.22-5.29 12.038-5.308 17.073l-4.061 3.36 8.586 8.586c3.37 3.369 8.541 5.318 15.288 5.318 18.957 0 43.205-15.37 54.158-34.337 7.057-12.219 6.866-22.954.765-29.036l-.009-.019Z"></path>
    <path fill="#ff9b50" stroke="#000" stroke-linecap="round" stroke-linejoin="round" d="M15.588 75.512c-8.573-11.397.809-32.92 20.955-48.074 20.146-15.154 43.427-18.199 52-6.802 8.573 11.398-.81 32.921-20.955 48.075-20.146 15.153-43.427 18.198-52 6.801Z"></path>
    <path fill="#000" d="M44.265 46.593c-1.075-.69.124-4.478 2.678-8.46 2.554-3.984 5.497-6.655 6.572-5.965 1.075.69-.124 4.478-2.678 8.461-2.555 3.983-5.497 6.654-6.572 5.964ZM60.657 46.599c-1.076-.69.123-4.478 2.678-8.461 2.554-3.983 5.496-6.654 6.572-5.964 1.075.69-.124 4.477-2.678 8.46-2.555 3.984-5.497 6.654-6.572 5.965Z"></path>
    <path stroke="#000" stroke-linecap="round" stroke-linejoin="round" d="M72.762 48.074C66.16 59.5 51.546 68.77 40.119 68.77s-15.342-9.27-8.75-20.696"></path>
</svg>