<svg preserveAspectRatio="xMidYMin slice" viewBox="0 0 105 97" fill="none" xmlns="http://www.w3.org/2000/svg">
    <path fill="#000" stroke="#000" stroke-linecap="round" stroke-linejoin="round" d="m8.269 27.732 8.577-8.577 4.106 3.396c.838-.063 1.694-.1 2.577-.1 18.957 0 43.205 15.37 54.158 34.336 3.588 6.22 5.29 12.038 5.309 17.073l4.06 3.36-8.585 8.586c-3.37 3.369-8.541 5.318-15.288 5.318-18.957 0-43.205-15.37-54.159-34.337C1.968 44.568 2.16 33.833 8.26 27.751l.009-.019Z"></path>
    <path fill="#F4C9D1" stroke="#000" stroke-linecap="round" stroke-linejoin="round" d="M88.543 75.512c8.573-11.397-.81-32.92-20.955-48.074-20.146-15.154-43.427-18.199-52-6.802-8.573 11.398.809 32.921 20.955 48.075 20.146 15.153 43.427 18.198 52 6.801Z"></path>
    <path fill="#000" d="M59.866 46.593c1.075-.69-.124-4.477-2.678-8.46-2.555-3.984-5.497-6.654-6.572-5.965-1.075.69.124 4.478 2.678 8.461 2.554 3.983 5.497 6.654 6.572 5.964ZM43.474 46.599c1.076-.69-.124-4.478-2.678-8.461-2.554-3.983-5.497-6.654-6.572-5.964-1.075.69.124 4.477 2.678 8.46 2.555 3.984 5.497 6.654 6.572 5.965Z"></path>
    <path stroke="#000" stroke-linecap="round" stroke-linejoin="round" d="M31.37 48.074C37.97 59.5 52.583 68.77 64.011 68.77c11.427 0 15.342-9.27 8.75-20.696"></path>
</svg>